<svg xmlns="http://www.w3.org/2000/svg" xmlns:xlink="http://www.w3.org/1999/xlink" width="54" height="43"
  viewBox="0 0 54 43" fill="none">
  <path stroke="rgba(67, 233, 123, 0.6)" stroke-width="5" stroke-linecap="round" d="M20.439 22.0984L15.8598 33.818">
  </path>
  <path fill-rule="evenodd" fill="url(#linear_border_0_6_0)"
    d="M19.1192 34.5518L0.922611 17.0292L0.919071 17.0258C0.35249 16.48 2.38419e-07 15.7136 2.38419e-07 14.8648C2.38419e-07 13.2079 1.34315 11.8648 3 11.8648C3.80807 11.8648 4.54152 12.1843 5.08093 12.7038L5.08395 12.7067L23.2811 30.2299Q24.6814 31.5784 26.069 30.2169L43.8982 12.7241L43.899 12.7234C44.4402 12.1923 45.1818 11.8648 46 11.8648C47.6568 11.8648 49 13.2079 49 14.8648C49 15.7035 48.6558 16.4618 48.101 17.0062L48.1 17.0072L30.2711 34.4997Q27.9531 36.774 24.7057 36.7892Q21.4584 36.8044 19.1192 34.5518Z">
  </path>
  <path fill-rule="evenodd" fill="rgba(67, 233, 123, 0.9)"
    d="M48.0522 17.1879C48.1597 17.0846 48.2608 16.9719 48.3545 16.85C49.3639 15.5362 49.1171 13.6528 47.8033 12.6434C46.5863 11.7083 44.8805 11.8511 43.8334 12.9216L29.022 27.6049C27.2223 29.3891 24.1582 28.2762 23.9229 25.7529L23.5969 22.2554L23.596 22.2457C23.5211 21.444 23.1256 20.6745 22.4367 20.1453C21.1229 19.1358 19.2395 19.3826 18.23 20.6964C17.7498 21.3214 17.5539 22.0753 17.6219 22.8026L17.6227 22.8109L17.9488 26.3098C18.6545 33.8796 27.8471 37.2184 33.2462 31.866L48.0522 17.1879Z">
  </path>
  <g filter="url(#filter_0_29)">
    <g clip-path="url(#clip-path-0_29)" opacity="0.9">
      <path transform="translate(28, 7)" fill="#FFFFFF"
        d="M0 28L0 2C0 0.89543 0.89543 0 2 0L20 0C21.1046 0 22 0.89543 22 2L22 28C22 29.1046 21.1046 30 20 30L2 30C0.89543 30 0 29.1046 0 28Z">
      </path>
      <rect x="30" y="9" width="18" height="18" rx="1" fill="#43E97B">
      </rect>
      <rect x="30" y="9" width="18" height="18" rx="1" fill="url(#linear_fill_0_21_1)">
      </rect>
      <rect x="30" y="9" width="18" height="18" rx="1" fill="url(#linear_fill_0_21_2)">
      </rect>
      <g mask="url(#mask-0_21)">
        <g filter="url(#filter_0_27)">
          <circle cx="47" cy="10" r="2" stroke="rgba(255, 255, 255, 1)" stroke-width="1" fill="#43E97B">
          </circle>
        </g>
      </g>
      <rect x="30" y="29" width="18" height="2" rx="1" fill="url(#linear_fill_0_30_0)">
      </rect>
      <g filter="url(#filter_0_31)">
        <circle cx="37" cy="30" r="1" stroke="rgba(255, 255, 255, 1)" stroke-width="1" fill="#43E97B">
        </circle>
      </g>
      <rect x="30" y="33" width="18" height="2" rx="1" fill="url(#linear_fill_0_32_0)">
      </rect>
      <g filter="url(#filter_0_33)">
        <circle cx="47" cy="34" r="1" stroke="rgba(255, 255, 255, 1)" stroke-width="1" fill="#43E97B">
        </circle>
      </g>
    </g>
  </g>
  <defs>
    <linearGradient id="linear_border_0_6_0" x1="3" y1="25.313385009765625" x2="46" y2="25.313385009765625"
      gradientUnits="userSpaceOnUse">
      <stop offset="0" stop-color="#43E97B" />
      <stop offset="1" stop-color="#38F9D7" />
    </linearGradient>
    <clipPath id="clip-path-0_29">
      <path
        d="M28 35L28 9C28 7.89543 28.8954 7 30 7L48 7C49.1046 7 50 7.89543 50 9L50 35C50 36.1046 49.1046 37 48 37L30 37C28.8954 37 28 36.1046 28 35Z"
        fill="white" />
    </clipPath>
    <linearGradient id="linear_fill_0_21_1" x1="30" y1="18" x2="48" y2="18" gradientUnits="userSpaceOnUse">
      <stop offset="0" stop-color="#FFFFFF" />
      <stop offset="1" stop-color="#FFFFFF" stop-opacity="0" />
    </linearGradient>
    <linearGradient id="linear_fill_0_21_2" x1="30.93006" y1="25.867800000000003" x2="36.45066" y2="6.4539"
      gradientUnits="userSpaceOnUse">
      <stop offset="0" stop-color="#000000" />
      <stop offset="1" stop-color="#000000" stop-opacity="0" />
    </linearGradient>
    <mask id="mask-0_21" style="mask-type:alpha" maskUnits="userSpaceOnUse">
      <rect x="30" y="9" width="18" height="18" rx="1" fill="#43E97B">
      </rect>
      <rect x="30" y="9" width="18" height="18" rx="1" fill="url(#linear_fill_0_21_1)">
      </rect>
      <rect x="30" y="9" width="18" height="18" rx="1" fill="url(#linear_fill_0_21_2)">
      </rect>
    </mask>
    <filter id="filter_0_27" x="40.5" y="5.5" width="13" height="13" filterUnits="userSpaceOnUse"
      color-interpolation-filters="sRGB">
      <feFlood flood-opacity="0" result="feFloodId_0_27" />
      <feColorMatrix in="SourceAlpha" type="matrix" values="0 0 0 0 0 0 0 0 0 0 0 0 0 0 0 0 0 0 127 0"
        result="hardAlpha_0_27" />
      <feOffset dx="0" dy="2" />
      <feGaussianBlur stdDeviation="2" />
      <feComposite in2="hardAlpha_0_27" operator="out" />
      <feColorMatrix type="matrix" values="0 0 0 0 0 0 0 0 0 0 0 0 0 0 0 0 0 0 0.25 0" />
      <feBlend mode="normal" in2="feFloodId_0_27" result="dropShadow_1_0_27" />
      <feBlend mode="normal" in="SourceGraphic" in2="dropShadow_1_0_27" result="shape_0_27" />
    </filter>
    <linearGradient id="linear_fill_0_30_0" x1="30" y1="30" x2="48" y2="30" gradientUnits="userSpaceOnUse">
      <stop offset="0" stop-color="#FF0000" />
      <stop offset="0.1915" stop-color="#FFFF00" />
      <stop offset="0.3621" stop-color="#00FF00" />
      <stop offset="0.5134" stop-color="#00FFFF" />
      <stop offset="0.6436" stop-color="#0000FF" />
      <stop offset="0.8156" stop-color="#FF00FF" />
      <stop offset="1" stop-color="#FF0000" />
    </linearGradient>
    <filter id="filter_0_31" x="31.5" y="26.5" width="11" height="11" filterUnits="userSpaceOnUse"
      color-interpolation-filters="sRGB">
      <feFlood flood-opacity="0" result="feFloodId_0_31" />
      <feColorMatrix in="SourceAlpha" type="matrix" values="0 0 0 0 0 0 0 0 0 0 0 0 0 0 0 0 0 0 127 0"
        result="hardAlpha_0_31" />
      <feOffset dx="0" dy="2" />
      <feGaussianBlur stdDeviation="2" />
      <feComposite in2="hardAlpha_0_31" operator="out" />
      <feColorMatrix type="matrix" values="0 0 0 0 0 0 0 0 0 0 0 0 0 0 0 0 0 0 0.25 0" />
      <feBlend mode="normal" in2="feFloodId_0_31" result="dropShadow_1_0_31" />
      <feBlend mode="normal" in="SourceGraphic" in2="dropShadow_1_0_31" result="shape_0_31" />
    </filter>
    <linearGradient id="linear_fill_0_32_0" x1="30" y1="34" x2="48" y2="34" gradientUnits="userSpaceOnUse">
      <stop offset="0" stop-color="#43E97B" stop-opacity="0.1" />
      <stop offset="1" stop-color="#43E97B" />
    </linearGradient>
    <filter id="filter_0_33" x="41.5" y="30.5" width="11" height="11" filterUnits="userSpaceOnUse"
      color-interpolation-filters="sRGB">
      <feFlood flood-opacity="0" result="feFloodId_0_33" />
      <feColorMatrix in="SourceAlpha" type="matrix" values="0 0 0 0 0 0 0 0 0 0 0 0 0 0 0 0 0 0 127 0"
        result="hardAlpha_0_33" />
      <feOffset dx="0" dy="2" />
      <feGaussianBlur stdDeviation="2" />
      <feComposite in2="hardAlpha_0_33" operator="out" />
      <feColorMatrix type="matrix" values="0 0 0 0 0 0 0 0 0 0 0 0 0 0 0 0 0 0 0.25 0" />
      <feBlend mode="normal" in2="feFloodId_0_33" result="dropShadow_1_0_33" />
      <feBlend mode="normal" in="SourceGraphic" in2="dropShadow_1_0_33" result="shape_0_33" />
    </filter>
    <filter id="filter_0_29" x="24" y="5" width="30" height="38" filterUnits="userSpaceOnUse"
      color-interpolation-filters="sRGB">
      <feFlood flood-opacity="0" result="feFloodId_0_29" />
      <feColorMatrix in="SourceAlpha" type="matrix" values="0 0 0 0 0 0 0 0 0 0 0 0 0 0 0 0 0 0 127 0"
        result="hardAlpha_0_29" />
      <feOffset dx="0" dy="2" />
      <feGaussianBlur stdDeviation="2" />
      <feComposite in2="hardAlpha_0_29" operator="out" />
      <feColorMatrix type="matrix" values="0 0 0 0 0 0 0 0 0 0 0 0 0 0 0 0 0 0 0.25 0" />
      <feBlend mode="normal" in2="feFloodId_0_29" result="dropShadow_1_0_29" />
      <feBlend mode="normal" in="SourceGraphic" in2="dropShadow_1_0_29" result="shape_0_29" />
    </filter>
  </defs>
</svg>
